<svg width="272" height="79" viewBox="0 0 272 79" fill="none" xmlns="http://www.w3.org/2000/svg">
<path d="M4.43652 15H3.26758V6.03125H0.123047V5.00586H7.56738V6.03125H4.43652V15ZM10.042 7.50781V15H8.90723V7.50781H10.042ZM9.48828 4.70508C9.67513 4.70508 9.83464 4.7666 9.9668 4.88965C10.1035 5.00814 10.1719 5.19499 10.1719 5.4502C10.1719 5.70085 10.1035 5.8877 9.9668 6.01074C9.83464 6.13379 9.67513 6.19531 9.48828 6.19531C9.29232 6.19531 9.12826 6.13379 8.99609 6.01074C8.86849 5.8877 8.80469 5.70085 8.80469 5.4502C8.80469 5.19499 8.86849 5.00814 8.99609 4.88965C9.12826 4.7666 9.29232 4.70508 9.48828 4.70508ZM15.9688 7.37109C16.903 7.37109 17.6481 7.69238 18.2041 8.33496C18.7601 8.97754 19.0381 9.94368 19.0381 11.2334C19.0381 12.0856 18.9105 12.8011 18.6553 13.3799C18.4001 13.9587 18.04 14.3962 17.5752 14.6924C17.1149 14.9886 16.5703 15.1367 15.9414 15.1367C15.5449 15.1367 15.1963 15.0843 14.8955 14.9795C14.5947 14.8747 14.3372 14.7334 14.123 14.5557C13.9089 14.3779 13.7311 14.1842 13.5898 13.9746H13.5078C13.5215 14.1523 13.5374 14.3665 13.5557 14.6172C13.5785 14.8678 13.5898 15.0866 13.5898 15.2734V18.3496H12.4482V7.50781H13.3848L13.5352 8.61523H13.5898C13.7357 8.38737 13.9134 8.18001 14.123 7.99316C14.3327 7.80176 14.5879 7.65137 14.8887 7.54199C15.194 7.42806 15.554 7.37109 15.9688 7.37109ZM15.7705 8.32812C15.251 8.32812 14.8317 8.42839 14.5127 8.62891C14.1982 8.82943 13.9681 9.13021 13.8223 9.53125C13.6764 9.92773 13.599 10.4268 13.5898 11.0283V11.2471C13.5898 11.8805 13.6582 12.416 13.7949 12.8535C13.9362 13.291 14.1663 13.6237 14.4854 13.8516C14.8089 14.0794 15.2419 14.1934 15.7842 14.1934C16.249 14.1934 16.6364 14.068 16.9463 13.8174C17.2562 13.5667 17.4863 13.2181 17.6367 12.7715C17.7917 12.3203 17.8691 11.8031 17.8691 11.2197C17.8691 10.3356 17.696 9.63379 17.3496 9.11426C17.0078 8.59017 16.4814 8.32812 15.7705 8.32812ZM27.4805 11.2402C27.4805 11.8555 27.4007 12.4046 27.2412 12.8877C27.0817 13.3708 26.8516 13.7786 26.5508 14.1113C26.25 14.444 25.8854 14.6992 25.457 14.877C25.0332 15.0501 24.5524 15.1367 24.0146 15.1367C23.5133 15.1367 23.0531 15.0501 22.6338 14.877C22.2191 14.6992 21.859 14.444 21.5537 14.1113C21.2529 13.7786 21.0182 13.3708 20.8496 12.8877C20.6855 12.4046 20.6035 11.8555 20.6035 11.2402C20.6035 10.4199 20.7425 9.72266 21.0205 9.14844C21.2985 8.56966 21.695 8.12988 22.21 7.8291C22.7295 7.52376 23.347 7.37109 24.0625 7.37109C24.7461 7.37109 25.3431 7.52376 25.8535 7.8291C26.3685 8.13444 26.7673 8.5765 27.0498 9.15527C27.3369 9.72949 27.4805 10.4245 27.4805 11.2402ZM21.7793 11.2402C21.7793 11.8418 21.859 12.3636 22.0186 12.8057C22.1781 13.2477 22.4242 13.5895 22.7568 13.8311C23.0895 14.0726 23.5179 14.1934 24.042 14.1934C24.5615 14.1934 24.9876 14.0726 25.3203 13.8311C25.6576 13.5895 25.9059 13.2477 26.0654 12.8057C26.2249 12.3636 26.3047 11.8418 26.3047 11.2402C26.3047 10.6432 26.2249 10.1283 26.0654 9.69531C25.9059 9.25781 25.6598 8.92057 25.3271 8.68359C24.9945 8.44661 24.5638 8.32812 24.0352 8.32812C23.2559 8.32812 22.6839 8.58561 22.3193 9.10059C21.9593 9.61556 21.7793 10.3288 21.7793 11.2402Z" fill="#C8CDD0"/>
<rect x="0.5" y="31.5" width="271" height="47" rx="7.5" fill="#1C1F21"/>
<rect x="0.5" y="31.5" width="271" height="47" rx="7.5" stroke="#363B40"/>
<rect x="5" y="35" width="129" height="40" rx="5" fill="#2D3136"/>
<g clip-path="url(#clip0_2126_1191)">
<path fill-rule="evenodd" clip-rule="evenodd" d="M27.3333 48.8335C27.1122 48.8335 26.9003 48.9213 26.744 49.0776C26.5877 49.2339 26.4999 49.4458 26.4999 49.6668V61.1668H33.4999V49.6668C33.4999 49.4458 33.4121 49.2339 33.2558 49.0776C33.0996 48.9213 32.8876 48.8335 32.6666 48.8335H27.3333ZM34.4999 52.5002V49.6668C34.4999 49.1806 34.3068 48.7143 33.9629 48.3705C33.6191 48.0267 33.1528 47.8335 32.6666 47.8335H27.3333C26.847 47.8335 26.3807 48.0267 26.0369 48.3705C25.6931 48.7143 25.4999 49.1806 25.4999 49.6668V54.5002H24.6666C24.1804 54.5002 23.714 54.6933 23.3702 55.0371C23.0264 55.3809 22.8333 55.8473 22.8333 56.3335V60.3335C22.8333 60.8197 23.0264 61.286 23.3702 61.6299C23.714 61.9737 24.1804 62.1668 24.6666 62.1668H35.3333C35.8195 62.1668 36.2858 61.9737 36.6296 61.6299C36.9734 61.286 37.1666 60.8197 37.1666 60.3335V54.3335C37.1666 53.8473 36.9734 53.3809 36.6296 53.0371C36.2858 52.6933 35.8195 52.5002 35.3333 52.5002H34.4999ZM34.4999 53.5002V61.1668H35.3333C35.5543 61.1668 35.7662 61.079 35.9225 60.9228C36.0788 60.7665 36.1666 60.5545 36.1666 60.3335V54.3335C36.1666 54.1125 36.0788 53.9005 35.9225 53.7442C35.7662 53.588 35.5543 53.5002 35.3333 53.5002H34.4999ZM25.4999 55.5002H24.6666C24.4456 55.5002 24.2336 55.588 24.0773 55.7442C23.921 55.9005 23.8333 56.1125 23.8333 56.3335V60.3335C23.8333 60.5545 23.921 60.7665 24.0773 60.9228C24.2336 61.079 24.4456 61.1668 24.6666 61.1668H25.4999V55.5002ZM28.1666 51.0002C28.1666 50.724 28.3904 50.5002 28.6666 50.5002H31.3333C31.6094 50.5002 31.8333 50.724 31.8333 51.0002C31.8333 51.2763 31.6094 51.5002 31.3333 51.5002H28.6666C28.3904 51.5002 28.1666 51.2763 28.1666 51.0002ZM28.1666 53.6668C28.1666 53.3907 28.3904 53.1668 28.6666 53.1668H31.3333C31.6094 53.1668 31.8333 53.3907 31.8333 53.6668C31.8333 53.943 31.6094 54.1668 31.3333 54.1668H28.6666C28.3904 54.1668 28.1666 53.943 28.1666 53.6668ZM28.1666 56.3335C28.1666 56.0574 28.3904 55.8335 28.6666 55.8335H31.3333C31.6094 55.8335 31.8333 56.0574 31.8333 56.3335C31.8333 56.6096 31.6094 56.8335 31.3333 56.8335H28.6666C28.3904 56.8335 28.1666 56.6096 28.1666 56.3335ZM28.1666 59.0002C28.1666 58.724 28.3904 58.5002 28.6666 58.5002H31.3333C31.6094 58.5002 31.8333 58.724 31.8333 59.0002C31.8333 59.2763 31.6094 59.5002 31.3333 59.5002H28.6666C28.3904 59.5002 28.1666 59.2763 28.1666 59.0002Z" fill="#59B2FF"/>
</g>
<path d="M50.2178 50.5059C51.5075 50.5059 52.4486 50.7702 53.041 51.2988C53.6335 51.8275 53.9297 52.568 53.9297 53.5205C53.9297 53.9535 53.8613 54.3659 53.7246 54.7578C53.5924 55.1452 53.3737 55.4893 53.0684 55.79C52.763 56.0863 52.3597 56.321 51.8584 56.4941C51.3617 56.6673 50.7487 56.7539 50.0195 56.7539H48.9531V60.5H47.3125V50.5059H50.2178ZM50.1084 51.8662H48.9531V55.3867H49.8486C50.3636 55.3867 50.8011 55.3275 51.1611 55.209C51.5212 55.0859 51.7946 54.8923 51.9814 54.6279C52.1683 54.3636 52.2617 54.015 52.2617 53.582C52.2617 53.0033 52.0863 52.5726 51.7354 52.29C51.389 52.0075 50.8467 51.8662 50.1084 51.8662ZM59.5967 52.7891C59.7243 52.7891 59.8633 52.7959 60.0137 52.8096C60.1641 52.8232 60.2939 52.8415 60.4033 52.8643L60.2529 54.3682C60.1572 54.3408 60.0387 54.3203 59.8975 54.3066C59.7607 54.293 59.6377 54.2861 59.5283 54.2861C59.2412 54.2861 58.9678 54.334 58.708 54.4297C58.4482 54.5208 58.2181 54.6621 58.0176 54.8535C57.8171 55.0404 57.6598 55.2751 57.5459 55.5576C57.432 55.8402 57.375 56.1683 57.375 56.542V60.5H55.7617V52.9326H57.0195L57.2383 54.2656H57.3135C57.4639 53.9967 57.6507 53.7507 57.874 53.5273C58.0973 53.304 58.3525 53.1263 58.6396 52.9941C58.9313 52.8574 59.2503 52.7891 59.5967 52.7891ZM64.8193 52.7891C65.4938 52.7891 66.0726 52.9281 66.5557 53.2061C67.0387 53.484 67.4102 53.8783 67.6699 54.3887C67.9297 54.8991 68.0596 55.5098 68.0596 56.2207V57.082H63.0078C63.026 57.8158 63.222 58.3809 63.5957 58.7773C63.974 59.1738 64.5026 59.3721 65.1816 59.3721C65.6647 59.3721 66.0977 59.3265 66.4805 59.2354C66.8678 59.1396 67.2666 59.0007 67.6768 58.8184V60.124C67.2985 60.3018 66.9134 60.4316 66.5215 60.5137C66.1296 60.5957 65.6602 60.6367 65.1133 60.6367C64.3704 60.6367 63.7165 60.4932 63.1514 60.2061C62.5908 59.9144 62.151 59.4814 61.832 58.9072C61.5176 58.333 61.3604 57.6198 61.3604 56.7676C61.3604 55.9199 61.5039 55.1999 61.791 54.6074C62.0781 54.015 62.4814 53.5638 63.001 53.2539C63.5205 52.944 64.1266 52.7891 64.8193 52.7891ZM64.8193 53.999C64.3135 53.999 63.9033 54.1631 63.5889 54.4912C63.279 54.8193 63.0967 55.3001 63.042 55.9336H66.4873C66.4827 55.5553 66.4189 55.2204 66.2959 54.9287C66.1774 54.637 65.9951 54.4092 65.749 54.2451C65.5075 54.0811 65.1976 53.999 64.8193 53.999ZM74.957 58.3398C74.957 58.8366 74.8363 59.2559 74.5947 59.5977C74.3532 59.9395 74 60.1992 73.5352 60.377C73.0749 60.5501 72.5098 60.6367 71.8398 60.6367C71.3112 60.6367 70.8555 60.598 70.4727 60.5205C70.0944 60.4476 69.7367 60.3337 69.3994 60.1787V58.791C69.7594 58.9596 70.1628 59.1055 70.6094 59.2285C71.0605 59.3516 71.4867 59.4131 71.8877 59.4131C72.4163 59.4131 72.7969 59.3311 73.0293 59.167C73.2617 58.9984 73.3779 58.7751 73.3779 58.4971C73.3779 58.333 73.3301 58.1872 73.2344 58.0596C73.1432 57.9274 72.9701 57.793 72.7148 57.6562C72.4642 57.515 72.0951 57.3464 71.6074 57.1504C71.1289 56.959 70.7256 56.7676 70.3975 56.5762C70.0693 56.3848 69.821 56.1546 69.6523 55.8857C69.4837 55.6123 69.3994 55.2637 69.3994 54.8398C69.3994 54.1699 69.6637 53.6618 70.1924 53.3154C70.7256 52.9645 71.4297 52.7891 72.3047 52.7891C72.7695 52.7891 73.207 52.8369 73.6172 52.9326C74.0319 53.0238 74.4375 53.1582 74.834 53.3359L74.3281 54.5459C73.9863 54.3955 73.6423 54.2725 73.2959 54.1768C72.9541 54.0765 72.6055 54.0264 72.25 54.0264C71.8353 54.0264 71.5186 54.0902 71.2998 54.2178C71.0856 54.3454 70.9785 54.5277 70.9785 54.7646C70.9785 54.9424 71.0309 55.0928 71.1357 55.2158C71.2406 55.3389 71.4206 55.4619 71.6758 55.585C71.9355 55.708 72.2956 55.8607 72.7559 56.043C73.207 56.2161 73.5967 56.3984 73.9248 56.5898C74.2575 56.7767 74.5127 57.0068 74.6904 57.2803C74.8682 57.5537 74.957 57.9069 74.957 58.3398ZM79.708 52.7891C80.3825 52.7891 80.9613 52.9281 81.4443 53.2061C81.9274 53.484 82.2988 53.8783 82.5586 54.3887C82.8184 54.8991 82.9482 55.5098 82.9482 56.2207V57.082H77.8965C77.9147 57.8158 78.1107 58.3809 78.4844 58.7773C78.8626 59.1738 79.3913 59.3721 80.0703 59.3721C80.5534 59.3721 80.9863 59.3265 81.3691 59.2354C81.7565 59.1396 82.1553 59.0007 82.5654 58.8184V60.124C82.1872 60.3018 81.8021 60.4316 81.4102 60.5137C81.0182 60.5957 80.5488 60.6367 80.002 60.6367C79.2591 60.6367 78.6051 60.4932 78.04 60.2061C77.4795 59.9144 77.0397 59.4814 76.7207 58.9072C76.4062 58.333 76.249 57.6198 76.249 56.7676C76.249 55.9199 76.3926 55.1999 76.6797 54.6074C76.9668 54.015 77.3701 53.5638 77.8896 53.2539C78.4092 52.944 79.0153 52.7891 79.708 52.7891ZM79.708 53.999C79.2021 53.999 78.792 54.1631 78.4775 54.4912C78.1676 54.8193 77.9854 55.3001 77.9307 55.9336H81.376C81.3714 55.5553 81.3076 55.2204 81.1846 54.9287C81.0661 54.637 80.8838 54.4092 80.6377 54.2451C80.3962 54.0811 80.0863 53.999 79.708 53.999ZM88.7041 52.7891C89.5563 52.7891 90.2194 53.0101 90.6934 53.4521C91.1719 53.8896 91.4111 54.5938 91.4111 55.5645V60.5H89.8047V55.8652C89.8047 55.2773 89.6839 54.8376 89.4424 54.5459C89.2008 54.2497 88.8271 54.1016 88.3213 54.1016C87.5876 54.1016 87.0771 54.3271 86.79 54.7783C86.5075 55.2295 86.3662 55.8835 86.3662 56.7402V60.5H84.7598V52.9326H86.0107L86.2363 53.958H86.3252C86.4893 53.6937 86.6921 53.4772 86.9336 53.3086C87.1797 53.1354 87.4531 53.0055 87.7539 52.9189C88.0592 52.8324 88.376 52.7891 88.7041 52.7891ZM96.709 60.6367C95.9935 60.6367 95.3737 60.4977 94.8496 60.2197C94.3255 59.9417 93.9222 59.5156 93.6396 58.9414C93.3571 58.3672 93.2158 57.638 93.2158 56.7539C93.2158 55.8333 93.3708 55.0814 93.6807 54.498C93.9906 53.9147 94.4189 53.484 94.9658 53.2061C95.5173 52.9281 96.1484 52.7891 96.8594 52.7891C97.3105 52.7891 97.7184 52.8346 98.083 52.9258C98.4521 53.0124 98.7643 53.1195 99.0195 53.2471L98.541 54.5322C98.263 54.4183 97.9782 54.3226 97.6865 54.2451C97.3949 54.1676 97.1146 54.1289 96.8457 54.1289C96.4036 54.1289 96.0345 54.2269 95.7383 54.4229C95.4466 54.6188 95.2279 54.9105 95.082 55.2979C94.9408 55.6852 94.8701 56.166 94.8701 56.7402C94.8701 57.2962 94.943 57.7656 95.0889 58.1484C95.2347 58.5267 95.4512 58.8138 95.7383 59.0098C96.0254 59.2012 96.3786 59.2969 96.7979 59.2969C97.2126 59.2969 97.584 59.2467 97.9121 59.1465C98.2402 59.0462 98.5501 58.9163 98.8418 58.7568V60.1514C98.5547 60.3154 98.2471 60.4362 97.9189 60.5137C97.5908 60.5957 97.1875 60.6367 96.709 60.6367ZM102.226 52.9326V60.5H100.619V52.9326H102.226ZM101.433 50.0342C101.679 50.0342 101.891 50.1003 102.068 50.2324C102.251 50.3646 102.342 50.5924 102.342 50.916C102.342 51.235 102.251 51.4629 102.068 51.5996C101.891 51.7318 101.679 51.7979 101.433 51.7979C101.177 51.7979 100.961 51.7318 100.783 51.5996C100.61 51.4629 100.523 51.235 100.523 50.916C100.523 50.5924 100.61 50.3646 100.783 50.2324C100.961 50.1003 101.177 50.0342 101.433 50.0342ZM107.496 52.7891C108.453 52.7891 109.175 53.001 109.663 53.4248C110.155 53.8486 110.401 54.5094 110.401 55.4072V60.5H109.26L108.952 59.4268H108.897C108.683 59.7002 108.462 59.9258 108.234 60.1035C108.007 60.2812 107.742 60.4134 107.441 60.5C107.145 60.5911 106.783 60.6367 106.354 60.6367C105.903 60.6367 105.5 60.5547 105.145 60.3906C104.789 60.222 104.509 59.9668 104.304 59.625C104.099 59.2832 103.996 58.8503 103.996 58.3262C103.996 57.5469 104.285 56.9613 104.864 56.5693C105.448 56.1774 106.327 55.9609 107.503 55.9199L108.815 55.8721V55.4756C108.815 54.9515 108.692 54.5778 108.446 54.3545C108.205 54.1312 107.863 54.0195 107.421 54.0195C107.043 54.0195 106.676 54.0742 106.32 54.1836C105.965 54.293 105.618 54.4274 105.281 54.5869L104.762 53.4521C105.131 53.2562 105.55 53.0967 106.02 52.9736C106.493 52.8506 106.986 52.7891 107.496 52.7891ZM108.809 56.8838L107.831 56.918C107.029 56.9453 106.466 57.082 106.143 57.3281C105.819 57.5742 105.657 57.9115 105.657 58.3398C105.657 58.7135 105.769 58.987 105.992 59.1602C106.215 59.3288 106.509 59.4131 106.874 59.4131C107.43 59.4131 107.89 59.2559 108.255 58.9414C108.624 58.6224 108.809 58.1553 108.809 57.54V56.8838ZM114.264 60.5H112.65V49.8633H114.264V60.5Z" fill="#F9F9F9"/>
<path fill-rule="evenodd" clip-rule="evenodd" d="M171.667 51.5C171.206 51.5 170.833 51.8731 170.833 52.3333V57.6667C170.833 58.1269 171.206 58.5 171.667 58.5H178.333C178.793 58.5 179.167 58.1269 179.167 57.6667V55.6735C179.167 55.6686 179.167 55.6638 179.167 55.6589V54.0095C179.166 54.0035 179.166 53.9975 179.167 53.9914V52.3333C179.167 51.8731 178.793 51.5 178.333 51.5H171.667ZM180.167 53.1294V52.3333C180.167 51.3208 179.346 50.5 178.333 50.5H171.667C170.654 50.5 169.833 51.3208 169.833 52.3333V57.6667C169.833 58.6792 170.654 59.5 171.667 59.5H178.333C179.346 59.5 180.167 58.6792 180.167 57.6667V56.6009L182.872 58.4043C182.997 58.4878 183.143 58.5357 183.293 58.5429C183.444 58.5501 183.594 58.5163 183.727 58.4452C183.859 58.374 183.971 58.2682 184.048 58.1389C184.126 58.0096 184.167 57.8617 184.167 57.7109V52.2468C184.167 52.2468 184.167 52.2469 184.167 52.2468C184.167 52.1002 184.128 51.9561 184.055 51.8292C183.981 51.7023 183.875 51.597 183.748 51.524C183.621 51.4509 183.477 51.4127 183.33 51.4132C183.184 51.4137 183.04 51.4529 182.913 51.5268L180.167 53.1294ZM180.167 54.2872V55.3991L183.167 57.3991V52.5368L180.167 54.2872Z" fill="#869198"/>
<path d="M203.035 55.4893C203.035 56.2594 202.937 56.9613 202.741 57.5947C202.545 58.2236 202.254 58.766 201.866 59.2217C201.483 59.6729 201.007 60.0215 200.438 60.2676C199.868 60.5137 199.207 60.6367 198.455 60.6367C197.68 60.6367 197.004 60.5137 196.425 60.2676C195.851 60.0215 195.372 59.6706 194.989 59.2148C194.611 58.7591 194.326 58.2145 194.135 57.5811C193.948 56.9476 193.854 56.2458 193.854 55.4756C193.854 54.4548 194.023 53.5592 194.36 52.7891C194.698 52.0189 195.208 51.4196 195.892 50.9912C196.58 50.5628 197.441 50.3486 198.476 50.3486C199.465 50.3486 200.296 50.5605 200.971 50.9844C201.65 51.4082 202.162 52.0052 202.509 52.7754C202.86 53.541 203.035 54.4456 203.035 55.4893ZM195.078 55.4893C195.078 56.3369 195.199 57.0706 195.44 57.6904C195.682 58.3102 196.051 58.7887 196.548 59.126C197.049 59.4632 197.685 59.6318 198.455 59.6318C199.23 59.6318 199.863 59.4632 200.355 59.126C200.852 58.7887 201.219 58.3102 201.456 57.6904C201.693 57.0706 201.812 56.3369 201.812 55.4893C201.812 54.1995 201.54 53.1924 200.998 52.4678C200.46 51.7386 199.619 51.374 198.476 51.374C197.701 51.374 197.063 51.5404 196.562 51.873C196.06 52.2057 195.687 52.6797 195.44 53.2949C195.199 53.9056 195.078 54.637 195.078 55.4893ZM208.641 52.8711C209.529 52.8711 210.201 53.0898 210.657 53.5273C211.113 53.9603 211.341 54.6576 211.341 55.6191V60.5H210.22V55.6943C210.22 55.07 210.076 54.6029 209.789 54.293C209.507 53.9831 209.071 53.8281 208.483 53.8281C207.654 53.8281 207.071 54.0628 206.733 54.5322C206.396 55.0016 206.228 55.6829 206.228 56.5762V60.5H205.093V53.0078H206.009L206.18 54.0879H206.241C206.401 53.8236 206.604 53.6025 206.85 53.4248C207.096 53.2425 207.371 53.1058 207.677 53.0146C207.982 52.9189 208.303 52.8711 208.641 52.8711ZM214.82 60.5H213.679V49.8633H214.82V60.5ZM218.354 53.0078V60.5H217.22V53.0078H218.354ZM217.801 50.2051C217.988 50.2051 218.147 50.2666 218.279 50.3896C218.416 50.5081 218.484 50.695 218.484 50.9502C218.484 51.2008 218.416 51.3877 218.279 51.5107C218.147 51.6338 217.988 51.6953 217.801 51.6953C217.605 51.6953 217.441 51.6338 217.309 51.5107C217.181 51.3877 217.117 51.2008 217.117 50.9502C217.117 50.695 217.181 50.5081 217.309 50.3896C217.441 50.2666 217.605 50.2051 217.801 50.2051ZM224.309 52.8711C225.197 52.8711 225.869 53.0898 226.325 53.5273C226.781 53.9603 227.009 54.6576 227.009 55.6191V60.5H225.888V55.6943C225.888 55.07 225.744 54.6029 225.457 54.293C225.174 53.9831 224.739 53.8281 224.151 53.8281C223.322 53.8281 222.739 54.0628 222.401 54.5322C222.064 55.0016 221.896 55.6829 221.896 56.5762V60.5H220.761V53.0078H221.677L221.848 54.0879H221.909C222.069 53.8236 222.271 53.6025 222.518 53.4248C222.764 53.2425 223.039 53.1058 223.345 53.0146C223.65 52.9189 223.971 52.8711 224.309 52.8711ZM232.231 52.8711C232.869 52.8711 233.416 53.0124 233.872 53.2949C234.328 53.5775 234.676 53.974 234.918 54.4844C235.16 54.9902 235.28 55.5827 235.28 56.2617V56.9658H230.105C230.119 57.8454 230.338 58.5153 230.762 58.9756C231.186 59.4359 231.783 59.666 232.553 59.666C233.027 59.666 233.446 59.6227 233.811 59.5361C234.175 59.4495 234.553 59.3219 234.945 59.1533V60.1514C234.567 60.32 234.191 60.443 233.817 60.5205C233.448 60.598 233.011 60.6367 232.505 60.6367C231.785 60.6367 231.156 60.4909 230.618 60.1992C230.085 59.903 229.67 59.4701 229.374 58.9004C229.078 58.3307 228.93 57.6335 228.93 56.8086C228.93 56.002 229.064 55.3047 229.333 54.7168C229.606 54.1243 229.989 53.6686 230.481 53.3496C230.978 53.0306 231.562 52.8711 232.231 52.8711ZM232.218 53.8008C231.612 53.8008 231.129 53.999 230.769 54.3955C230.409 54.792 230.194 55.3457 230.126 56.0566H234.091C234.086 55.61 234.016 55.2181 233.879 54.8809C233.747 54.5391 233.544 54.2747 233.271 54.0879C232.997 53.8965 232.646 53.8008 232.218 53.8008Z" fill="#C8CDD0"/>
<defs>
<clipPath id="clip0_2126_1191">
<rect width="16" height="16" fill="white" transform="translate(22 47)"/>
</clipPath>
</defs>
</svg>
